<svg xmlns="http://www.w3.org/2000/svg" width="800" height="800" viewBox="0 0 800 800">
  <defs>
    <linearGradient id="bg" x1="0" y1="0" x2="1" y2="1">
      <stop offset="0%" stop-color="#08080e"/>
      <stop offset="100%" stop-color="#1a1a2e"/>
    </linearGradient>
    <filter id="glow">
      <feGaussianBlur stdDeviation="3" result="blur"/>
      <feMerge><feMergeNode in="blur"/><feMergeNode in="SourceGraphic"/></feMerge>
    </filter>
  </defs>

  <!-- Background -->
  <rect width="800" height="800" fill="url(#bg)"/>

  <!-- Grid lines -->
  <line x1="0" y1="0" x2="0" y2="800" stroke="#1a1a2e" stroke-width="0.5" opacity="0.3"/>
  <line x1="40" y1="0" x2="40" y2="800" stroke="#1a1a2e" stroke-width="0.5" opacity="0.3"/>
  <line x1="80" y1="0" x2="80" y2="800" stroke="#1a1a2e" stroke-width="0.5" opacity="0.3"/>
  <line x1="120" y1="0" x2="120" y2="800" stroke="#1a1a2e" stroke-width="0.5" opacity="0.3"/>
  <line x1="160" y1="0" x2="160" y2="800" stroke="#1a1a2e" stroke-width="0.5" opacity="0.3"/>
  <line x1="200" y1="0" x2="200" y2="800" stroke="#1a1a2e" stroke-width="0.5" opacity="0.3"/>
  <line x1="240" y1="0" x2="240" y2="800" stroke="#1a1a2e" stroke-width="0.5" opacity="0.3"/>
  <line x1="280" y1="0" x2="280" y2="800" stroke="#1a1a2e" stroke-width="0.5" opacity="0.3"/>
  <line x1="320" y1="0" x2="320" y2="800" stroke="#1a1a2e" stroke-width="0.5" opacity="0.3"/>
  <line x1="360" y1="0" x2="360" y2="800" stroke="#1a1a2e" stroke-width="0.5" opacity="0.3"/>
  <line x1="400" y1="0" x2="400" y2="800" stroke="#1a1a2e" stroke-width="0.5" opacity="0.3"/>
  <line x1="440" y1="0" x2="440" y2="800" stroke="#1a1a2e" stroke-width="0.5" opacity="0.3"/>
  <line x1="480" y1="0" x2="480" y2="800" stroke="#1a1a2e" stroke-width="0.5" opacity="0.3"/>
  <line x1="520" y1="0" x2="520" y2="800" stroke="#1a1a2e" stroke-width="0.5" opacity="0.3"/>
  <line x1="560" y1="0" x2="560" y2="800" stroke="#1a1a2e" stroke-width="0.5" opacity="0.3"/>
  <line x1="600" y1="0" x2="600" y2="800" stroke="#1a1a2e" stroke-width="0.5" opacity="0.3"/>
  <line x1="640" y1="0" x2="640" y2="800" stroke="#1a1a2e" stroke-width="0.5" opacity="0.3"/>
  <line x1="680" y1="0" x2="680" y2="800" stroke="#1a1a2e" stroke-width="0.5" opacity="0.3"/>
  <line x1="720" y1="0" x2="720" y2="800" stroke="#1a1a2e" stroke-width="0.5" opacity="0.3"/>
  <line x1="760" y1="0" x2="760" y2="800" stroke="#1a1a2e" stroke-width="0.5" opacity="0.3"/>
  <line x1="0" y1="0" x2="800" y2="0" stroke="#1a1a2e" stroke-width="0.5" opacity="0.3"/>
  <line x1="0" y1="40" x2="800" y2="40" stroke="#1a1a2e" stroke-width="0.5" opacity="0.3"/>
  <line x1="0" y1="80" x2="800" y2="80" stroke="#1a1a2e" stroke-width="0.5" opacity="0.3"/>
  <line x1="0" y1="120" x2="800" y2="120" stroke="#1a1a2e" stroke-width="0.5" opacity="0.3"/>
  <line x1="0" y1="160" x2="800" y2="160" stroke="#1a1a2e" stroke-width="0.5" opacity="0.3"/>
  <line x1="0" y1="200" x2="800" y2="200" stroke="#1a1a2e" stroke-width="0.5" opacity="0.3"/>
  <line x1="0" y1="240" x2="800" y2="240" stroke="#1a1a2e" stroke-width="0.5" opacity="0.3"/>
  <line x1="0" y1="280" x2="800" y2="280" stroke="#1a1a2e" stroke-width="0.5" opacity="0.3"/>
  <line x1="0" y1="320" x2="800" y2="320" stroke="#1a1a2e" stroke-width="0.5" opacity="0.3"/>
  <line x1="0" y1="360" x2="800" y2="360" stroke="#1a1a2e" stroke-width="0.5" opacity="0.3"/>
  <line x1="0" y1="400" x2="800" y2="400" stroke="#1a1a2e" stroke-width="0.5" opacity="0.3"/>
  <line x1="0" y1="440" x2="800" y2="440" stroke="#1a1a2e" stroke-width="0.5" opacity="0.3"/>
  <line x1="0" y1="480" x2="800" y2="480" stroke="#1a1a2e" stroke-width="0.5" opacity="0.3"/>
  <line x1="0" y1="520" x2="800" y2="520" stroke="#1a1a2e" stroke-width="0.5" opacity="0.3"/>
  <line x1="0" y1="560" x2="800" y2="560" stroke="#1a1a2e" stroke-width="0.5" opacity="0.3"/>
  <line x1="0" y1="600" x2="800" y2="600" stroke="#1a1a2e" stroke-width="0.5" opacity="0.3"/>
  <line x1="0" y1="640" x2="800" y2="640" stroke="#1a1a2e" stroke-width="0.5" opacity="0.3"/>
  <line x1="0" y1="680" x2="800" y2="680" stroke="#1a1a2e" stroke-width="0.5" opacity="0.3"/>
  <line x1="0" y1="720" x2="800" y2="720" stroke="#1a1a2e" stroke-width="0.5" opacity="0.3"/>
  <line x1="0" y1="760" x2="800" y2="760" stroke="#1a1a2e" stroke-width="0.5" opacity="0.3"/>

  <!-- Scanlines -->
  <rect x="0" y="0" width="800" height="1" fill="black" opacity="0.15"/>
  <rect x="0" y="4" width="800" height="1" fill="black" opacity="0.15"/>
  <rect x="0" y="8" width="800" height="1" fill="black" opacity="0.15"/>
  <rect x="0" y="12" width="800" height="1" fill="black" opacity="0.15"/>
  <rect x="0" y="16" width="800" height="1" fill="black" opacity="0.15"/>
  <rect x="0" y="20" width="800" height="1" fill="black" opacity="0.15"/>
  <rect x="0" y="24" width="800" height="1" fill="black" opacity="0.15"/>
  <rect x="0" y="28" width="800" height="1" fill="black" opacity="0.15"/>
  <rect x="0" y="32" width="800" height="1" fill="black" opacity="0.15"/>
  <rect x="0" y="36" width="800" height="1" fill="black" opacity="0.15"/>
  <rect x="0" y="40" width="800" height="1" fill="black" opacity="0.15"/>
  <rect x="0" y="44" width="800" height="1" fill="black" opacity="0.15"/>
  <rect x="0" y="48" width="800" height="1" fill="black" opacity="0.15"/>
  <rect x="0" y="52" width="800" height="1" fill="black" opacity="0.15"/>
  <rect x="0" y="56" width="800" height="1" fill="black" opacity="0.15"/>
  <rect x="0" y="60" width="800" height="1" fill="black" opacity="0.15"/>
  <rect x="0" y="64" width="800" height="1" fill="black" opacity="0.15"/>
  <rect x="0" y="68" width="800" height="1" fill="black" opacity="0.15"/>
  <rect x="0" y="72" width="800" height="1" fill="black" opacity="0.15"/>
  <rect x="0" y="76" width="800" height="1" fill="black" opacity="0.15"/>
  <rect x="0" y="80" width="800" height="1" fill="black" opacity="0.15"/>
  <rect x="0" y="84" width="800" height="1" fill="black" opacity="0.15"/>
  <rect x="0" y="88" width="800" height="1" fill="black" opacity="0.15"/>
  <rect x="0" y="92" width="800" height="1" fill="black" opacity="0.15"/>
  <rect x="0" y="96" width="800" height="1" fill="black" opacity="0.15"/>
  <rect x="0" y="100" width="800" height="1" fill="black" opacity="0.15"/>
  <rect x="0" y="104" width="800" height="1" fill="black" opacity="0.15"/>
  <rect x="0" y="108" width="800" height="1" fill="black" opacity="0.15"/>
  <rect x="0" y="112" width="800" height="1" fill="black" opacity="0.15"/>
  <rect x="0" y="116" width="800" height="1" fill="black" opacity="0.15"/>
  <rect x="0" y="120" width="800" height="1" fill="black" opacity="0.15"/>
  <rect x="0" y="124" width="800" height="1" fill="black" opacity="0.15"/>
  <rect x="0" y="128" width="800" height="1" fill="black" opacity="0.15"/>
  <rect x="0" y="132" width="800" height="1" fill="black" opacity="0.15"/>
  <rect x="0" y="136" width="800" height="1" fill="black" opacity="0.15"/>
  <rect x="0" y="140" width="800" height="1" fill="black" opacity="0.15"/>
  <rect x="0" y="144" width="800" height="1" fill="black" opacity="0.15"/>
  <rect x="0" y="148" width="800" height="1" fill="black" opacity="0.15"/>
  <rect x="0" y="152" width="800" height="1" fill="black" opacity="0.15"/>
  <rect x="0" y="156" width="800" height="1" fill="black" opacity="0.15"/>
  <rect x="0" y="160" width="800" height="1" fill="black" opacity="0.15"/>
  <rect x="0" y="164" width="800" height="1" fill="black" opacity="0.15"/>
  <rect x="0" y="168" width="800" height="1" fill="black" opacity="0.15"/>
  <rect x="0" y="172" width="800" height="1" fill="black" opacity="0.15"/>
  <rect x="0" y="176" width="800" height="1" fill="black" opacity="0.15"/>
  <rect x="0" y="180" width="800" height="1" fill="black" opacity="0.15"/>
  <rect x="0" y="184" width="800" height="1" fill="black" opacity="0.15"/>
  <rect x="0" y="188" width="800" height="1" fill="black" opacity="0.15"/>
  <rect x="0" y="192" width="800" height="1" fill="black" opacity="0.15"/>
  <rect x="0" y="196" width="800" height="1" fill="black" opacity="0.15"/>
  <rect x="0" y="200" width="800" height="1" fill="black" opacity="0.15"/>
  <rect x="0" y="204" width="800" height="1" fill="black" opacity="0.15"/>
  <rect x="0" y="208" width="800" height="1" fill="black" opacity="0.15"/>
  <rect x="0" y="212" width="800" height="1" fill="black" opacity="0.15"/>
  <rect x="0" y="216" width="800" height="1" fill="black" opacity="0.15"/>
  <rect x="0" y="220" width="800" height="1" fill="black" opacity="0.15"/>
  <rect x="0" y="224" width="800" height="1" fill="black" opacity="0.15"/>
  <rect x="0" y="228" width="800" height="1" fill="black" opacity="0.15"/>
  <rect x="0" y="232" width="800" height="1" fill="black" opacity="0.15"/>
  <rect x="0" y="236" width="800" height="1" fill="black" opacity="0.15"/>
  <rect x="0" y="240" width="800" height="1" fill="black" opacity="0.15"/>
  <rect x="0" y="244" width="800" height="1" fill="black" opacity="0.15"/>
  <rect x="0" y="248" width="800" height="1" fill="black" opacity="0.15"/>
  <rect x="0" y="252" width="800" height="1" fill="black" opacity="0.15"/>
  <rect x="0" y="256" width="800" height="1" fill="black" opacity="0.15"/>
  <rect x="0" y="260" width="800" height="1" fill="black" opacity="0.15"/>
  <rect x="0" y="264" width="800" height="1" fill="black" opacity="0.15"/>
  <rect x="0" y="268" width="800" height="1" fill="black" opacity="0.15"/>
  <rect x="0" y="272" width="800" height="1" fill="black" opacity="0.15"/>
  <rect x="0" y="276" width="800" height="1" fill="black" opacity="0.15"/>
  <rect x="0" y="280" width="800" height="1" fill="black" opacity="0.15"/>
  <rect x="0" y="284" width="800" height="1" fill="black" opacity="0.15"/>
  <rect x="0" y="288" width="800" height="1" fill="black" opacity="0.15"/>
  <rect x="0" y="292" width="800" height="1" fill="black" opacity="0.15"/>
  <rect x="0" y="296" width="800" height="1" fill="black" opacity="0.15"/>
  <rect x="0" y="300" width="800" height="1" fill="black" opacity="0.15"/>
  <rect x="0" y="304" width="800" height="1" fill="black" opacity="0.15"/>
  <rect x="0" y="308" width="800" height="1" fill="black" opacity="0.15"/>
  <rect x="0" y="312" width="800" height="1" fill="black" opacity="0.15"/>
  <rect x="0" y="316" width="800" height="1" fill="black" opacity="0.15"/>
  <rect x="0" y="320" width="800" height="1" fill="black" opacity="0.15"/>
  <rect x="0" y="324" width="800" height="1" fill="black" opacity="0.15"/>
  <rect x="0" y="328" width="800" height="1" fill="black" opacity="0.15"/>
  <rect x="0" y="332" width="800" height="1" fill="black" opacity="0.15"/>
  <rect x="0" y="336" width="800" height="1" fill="black" opacity="0.15"/>
  <rect x="0" y="340" width="800" height="1" fill="black" opacity="0.15"/>
  <rect x="0" y="344" width="800" height="1" fill="black" opacity="0.15"/>
  <rect x="0" y="348" width="800" height="1" fill="black" opacity="0.15"/>
  <rect x="0" y="352" width="800" height="1" fill="black" opacity="0.15"/>
  <rect x="0" y="356" width="800" height="1" fill="black" opacity="0.15"/>
  <rect x="0" y="360" width="800" height="1" fill="black" opacity="0.15"/>
  <rect x="0" y="364" width="800" height="1" fill="black" opacity="0.15"/>
  <rect x="0" y="368" width="800" height="1" fill="black" opacity="0.15"/>
  <rect x="0" y="372" width="800" height="1" fill="black" opacity="0.15"/>
  <rect x="0" y="376" width="800" height="1" fill="black" opacity="0.15"/>
  <rect x="0" y="380" width="800" height="1" fill="black" opacity="0.15"/>
  <rect x="0" y="384" width="800" height="1" fill="black" opacity="0.15"/>
  <rect x="0" y="388" width="800" height="1" fill="black" opacity="0.15"/>
  <rect x="0" y="392" width="800" height="1" fill="black" opacity="0.15"/>
  <rect x="0" y="396" width="800" height="1" fill="black" opacity="0.15"/>
  <rect x="0" y="400" width="800" height="1" fill="black" opacity="0.15"/>
  <rect x="0" y="404" width="800" height="1" fill="black" opacity="0.15"/>
  <rect x="0" y="408" width="800" height="1" fill="black" opacity="0.15"/>
  <rect x="0" y="412" width="800" height="1" fill="black" opacity="0.15"/>
  <rect x="0" y="416" width="800" height="1" fill="black" opacity="0.15"/>
  <rect x="0" y="420" width="800" height="1" fill="black" opacity="0.15"/>
  <rect x="0" y="424" width="800" height="1" fill="black" opacity="0.15"/>
  <rect x="0" y="428" width="800" height="1" fill="black" opacity="0.15"/>
  <rect x="0" y="432" width="800" height="1" fill="black" opacity="0.15"/>
  <rect x="0" y="436" width="800" height="1" fill="black" opacity="0.15"/>
  <rect x="0" y="440" width="800" height="1" fill="black" opacity="0.15"/>
  <rect x="0" y="444" width="800" height="1" fill="black" opacity="0.15"/>
  <rect x="0" y="448" width="800" height="1" fill="black" opacity="0.15"/>
  <rect x="0" y="452" width="800" height="1" fill="black" opacity="0.15"/>
  <rect x="0" y="456" width="800" height="1" fill="black" opacity="0.15"/>
  <rect x="0" y="460" width="800" height="1" fill="black" opacity="0.15"/>
  <rect x="0" y="464" width="800" height="1" fill="black" opacity="0.15"/>
  <rect x="0" y="468" width="800" height="1" fill="black" opacity="0.15"/>
  <rect x="0" y="472" width="800" height="1" fill="black" opacity="0.15"/>
  <rect x="0" y="476" width="800" height="1" fill="black" opacity="0.15"/>
  <rect x="0" y="480" width="800" height="1" fill="black" opacity="0.15"/>
  <rect x="0" y="484" width="800" height="1" fill="black" opacity="0.15"/>
  <rect x="0" y="488" width="800" height="1" fill="black" opacity="0.15"/>
  <rect x="0" y="492" width="800" height="1" fill="black" opacity="0.15"/>
  <rect x="0" y="496" width="800" height="1" fill="black" opacity="0.15"/>
  <rect x="0" y="500" width="800" height="1" fill="black" opacity="0.15"/>
  <rect x="0" y="504" width="800" height="1" fill="black" opacity="0.15"/>
  <rect x="0" y="508" width="800" height="1" fill="black" opacity="0.15"/>
  <rect x="0" y="512" width="800" height="1" fill="black" opacity="0.15"/>
  <rect x="0" y="516" width="800" height="1" fill="black" opacity="0.15"/>
  <rect x="0" y="520" width="800" height="1" fill="black" opacity="0.15"/>
  <rect x="0" y="524" width="800" height="1" fill="black" opacity="0.15"/>
  <rect x="0" y="528" width="800" height="1" fill="black" opacity="0.15"/>
  <rect x="0" y="532" width="800" height="1" fill="black" opacity="0.15"/>
  <rect x="0" y="536" width="800" height="1" fill="black" opacity="0.15"/>
  <rect x="0" y="540" width="800" height="1" fill="black" opacity="0.15"/>
  <rect x="0" y="544" width="800" height="1" fill="black" opacity="0.15"/>
  <rect x="0" y="548" width="800" height="1" fill="black" opacity="0.15"/>
  <rect x="0" y="552" width="800" height="1" fill="black" opacity="0.15"/>
  <rect x="0" y="556" width="800" height="1" fill="black" opacity="0.15"/>
  <rect x="0" y="560" width="800" height="1" fill="black" opacity="0.15"/>
  <rect x="0" y="564" width="800" height="1" fill="black" opacity="0.15"/>
  <rect x="0" y="568" width="800" height="1" fill="black" opacity="0.15"/>
  <rect x="0" y="572" width="800" height="1" fill="black" opacity="0.15"/>
  <rect x="0" y="576" width="800" height="1" fill="black" opacity="0.15"/>
  <rect x="0" y="580" width="800" height="1" fill="black" opacity="0.15"/>
  <rect x="0" y="584" width="800" height="1" fill="black" opacity="0.15"/>
  <rect x="0" y="588" width="800" height="1" fill="black" opacity="0.15"/>
  <rect x="0" y="592" width="800" height="1" fill="black" opacity="0.15"/>
  <rect x="0" y="596" width="800" height="1" fill="black" opacity="0.15"/>
  <rect x="0" y="600" width="800" height="1" fill="black" opacity="0.15"/>
  <rect x="0" y="604" width="800" height="1" fill="black" opacity="0.15"/>
  <rect x="0" y="608" width="800" height="1" fill="black" opacity="0.15"/>
  <rect x="0" y="612" width="800" height="1" fill="black" opacity="0.15"/>
  <rect x="0" y="616" width="800" height="1" fill="black" opacity="0.15"/>
  <rect x="0" y="620" width="800" height="1" fill="black" opacity="0.15"/>
  <rect x="0" y="624" width="800" height="1" fill="black" opacity="0.15"/>
  <rect x="0" y="628" width="800" height="1" fill="black" opacity="0.15"/>
  <rect x="0" y="632" width="800" height="1" fill="black" opacity="0.15"/>
  <rect x="0" y="636" width="800" height="1" fill="black" opacity="0.15"/>
  <rect x="0" y="640" width="800" height="1" fill="black" opacity="0.15"/>
  <rect x="0" y="644" width="800" height="1" fill="black" opacity="0.15"/>
  <rect x="0" y="648" width="800" height="1" fill="black" opacity="0.15"/>
  <rect x="0" y="652" width="800" height="1" fill="black" opacity="0.15"/>
  <rect x="0" y="656" width="800" height="1" fill="black" opacity="0.15"/>
  <rect x="0" y="660" width="800" height="1" fill="black" opacity="0.15"/>
  <rect x="0" y="664" width="800" height="1" fill="black" opacity="0.15"/>
  <rect x="0" y="668" width="800" height="1" fill="black" opacity="0.15"/>
  <rect x="0" y="672" width="800" height="1" fill="black" opacity="0.15"/>
  <rect x="0" y="676" width="800" height="1" fill="black" opacity="0.15"/>
  <rect x="0" y="680" width="800" height="1" fill="black" opacity="0.15"/>
  <rect x="0" y="684" width="800" height="1" fill="black" opacity="0.15"/>
  <rect x="0" y="688" width="800" height="1" fill="black" opacity="0.15"/>
  <rect x="0" y="692" width="800" height="1" fill="black" opacity="0.15"/>
  <rect x="0" y="696" width="800" height="1" fill="black" opacity="0.15"/>
  <rect x="0" y="700" width="800" height="1" fill="black" opacity="0.15"/>
  <rect x="0" y="704" width="800" height="1" fill="black" opacity="0.15"/>
  <rect x="0" y="708" width="800" height="1" fill="black" opacity="0.15"/>
  <rect x="0" y="712" width="800" height="1" fill="black" opacity="0.15"/>
  <rect x="0" y="716" width="800" height="1" fill="black" opacity="0.15"/>
  <rect x="0" y="720" width="800" height="1" fill="black" opacity="0.15"/>
  <rect x="0" y="724" width="800" height="1" fill="black" opacity="0.15"/>
  <rect x="0" y="728" width="800" height="1" fill="black" opacity="0.15"/>
  <rect x="0" y="732" width="800" height="1" fill="black" opacity="0.15"/>
  <rect x="0" y="736" width="800" height="1" fill="black" opacity="0.15"/>
  <rect x="0" y="740" width="800" height="1" fill="black" opacity="0.15"/>
  <rect x="0" y="744" width="800" height="1" fill="black" opacity="0.15"/>
  <rect x="0" y="748" width="800" height="1" fill="black" opacity="0.15"/>
  <rect x="0" y="752" width="800" height="1" fill="black" opacity="0.15"/>
  <rect x="0" y="756" width="800" height="1" fill="black" opacity="0.15"/>
  <rect x="0" y="760" width="800" height="1" fill="black" opacity="0.15"/>
  <rect x="0" y="764" width="800" height="1" fill="black" opacity="0.15"/>
  <rect x="0" y="768" width="800" height="1" fill="black" opacity="0.15"/>
  <rect x="0" y="772" width="800" height="1" fill="black" opacity="0.15"/>
  <rect x="0" y="776" width="800" height="1" fill="black" opacity="0.15"/>
  <rect x="0" y="780" width="800" height="1" fill="black" opacity="0.15"/>
  <rect x="0" y="784" width="800" height="1" fill="black" opacity="0.15"/>
  <rect x="0" y="788" width="800" height="1" fill="black" opacity="0.15"/>
  <rect x="0" y="792" width="800" height="1" fill="black" opacity="0.15"/>
  <rect x="0" y="796" width="800" height="1" fill="black" opacity="0.15"/>

  <!-- CogCorp logo text -->
  <text x="400" y="180" text-anchor="middle" font-family="monospace" font-size="60" font-weight="bold" fill="#00cccc" filter="url(#glow)">COGCORP</text>

  <!-- Piece number -->
  <text x="400" y="240" text-anchor="middle" font-family="monospace" font-size="28" fill="#ff3366">#006</text>

  <!-- Decorative line -->
  <line x1="200" y1="270" x2="600" y2="270" stroke="#00cccc" stroke-width="2" opacity="0.6"/>

  <!-- Title -->
  <text x="400" y="380" text-anchor="middle" font-family="monospace" font-size="24" fill="#c0c0c0">Orientation Video</text>

  <!-- Subtype -->
  <text x="400" y="420" text-anchor="middle" font-family="monospace" font-size="16" fill="#00cccc" opacity="0.7">Training</text>

  <!-- Tagline -->
  <text x="400" y="520" text-anchor="middle" font-family="monospace" font-size="14" fill="#ff3366" opacity="0.8">COMPLIANCE IS PURPOSE</text>

  <!-- Interactive badge -->
  <rect x="300" y="560" width="200" height="30" rx="4" fill="none" stroke="#00cccc" stroke-width="1" opacity="0.5"/>
  <text x="400" y="580" text-anchor="middle" font-family="monospace" font-size="12" fill="#00cccc" opacity="0.7">INTERACTIVE HTML NFT</text>

  <!-- Bottom info -->
  <text x="400" y="700" text-anchor="middle" font-family="monospace" font-size="12" fill="#c0c0c0" opacity="0.4">Bots of Cog Universe</text>
  <text x="400" y="720" text-anchor="middle" font-family="monospace" font-size="11" fill="#c0c0c0" opacity="0.3">Created by Meridian AI</text>

  <!-- Corner accents -->
  <polyline points="20,50 20,20 50,20" fill="none" stroke="#00cccc" stroke-width="2" opacity="0.4"/>
  <polyline points="750,20 780,20 780,50" fill="none" stroke="#00cccc" stroke-width="2" opacity="0.4"/>
  <polyline points="20,750 20,780 50,780" fill="none" stroke="#00cccc" stroke-width="2" opacity="0.4"/>
  <polyline points="750,780 780,780 780,750" fill="none" stroke="#00cccc" stroke-width="2" opacity="0.4"/>
</svg>