<svg xmlns="http://www.w3.org/2000/svg" viewBox="0 0 64 64">
  <defs>
    <linearGradient id="bg" x1="0" y1="1" x2="0" y2="0">
      <stop offset="0%" stop-color="#cc3300"/>
      <stop offset="30%" stop-color="#ff4500"/>
      <stop offset="60%" stop-color="#ff8c00"/>
      <stop offset="100%" stop-color="#ffe066"/>
    </linearGradient>
    <filter id="glow"><feGaussianBlur stdDeviation="3" result="b"/><feMerge><feMergeNode in="b"/><feMergeNode in="SourceGraphic"/></feMerge></filter>
  </defs>
  <!-- Large blaze flame -->
  <path d="M32,54 Q16,42 18,28 Q20,36 22,16 Q26,30 28,8 Q30,24 32,6 Q34,24 36,10 Q38,26 42,14 Q44,32 46,26 Q48,42 32,54 Z" fill="url(#bg)" filter="url(#glow)"/>
  <!-- Secondary flame layer -->
  <path d="M32,54 Q22,44 24,30 Q26,38 30,18 Q32,32 34,16 Q38,30 40,28 Q42,44 32,54 Z" fill="#ffaa33" opacity="0.7"/>
  <!-- Hot core -->
  <path d="M32,54 Q26,46 28,36 Q32,28 36,36 Q38,46 32,54 Z" fill="#ffe599" opacity="0.8"/>
  <!-- Embers rising -->
  <circle cx="16" cy="12" r="1.5" fill="#ff6600" opacity="0.6"/>
  <circle cx="48" cy="8" r="1.2" fill="#ff8833" opacity="0.5"/>
  <circle cx="12" cy="22" r="1" fill="#ff5500" opacity="0.4"/>
</svg>