<svg xmlns="http://www.w3.org/2000/svg" viewBox="0 0 64 64">
  <defs>
    <linearGradient id="ig" x1="0" y1="1" x2="0" y2="0">
      <stop offset="0%" stop-color="#8b0000"/>
      <stop offset="20%" stop-color="#cc0000"/>
      <stop offset="50%" stop-color="#ff4400"/>
      <stop offset="80%" stop-color="#ff8800"/>
      <stop offset="100%" stop-color="#ffee44"/>
    </linearGradient>
    <filter id="glow"><feGaussianBlur stdDeviation="3.5" result="b"/><feMerge><feMergeNode in="b"/><feMergeNode in="SourceGraphic"/></feMerge></filter>
  </defs>
  <!-- Massive flame - fills the whole icon -->
  <path d="M32,58 Q8,44 12,22 Q16,34 18,10 Q22,28 26,4 Q28,20 32,2 Q36,18 38,6 Q40,22 44,8 Q48,28 52,18 Q56,42 32,58 Z" fill="url(#ig)" filter="url(#glow)"/>
  <!-- Inner layer -->
  <path d="M32,58 Q14,44 20,24 Q24,34 28,12 Q30,26 32,8 Q34,26 36,14 Q40,30 44,22 Q50,44 32,58 Z" fill="#ff6633" opacity="0.6"/>
  <!-- Hot core -->
  <path d="M32,58 Q20,48 24,34 Q28,42 32,22 Q36,42 40,32 Q44,48 32,58 Z" fill="#ffcc66" opacity="0.7"/>
  <!-- White center -->
  <ellipse cx="32" cy="50" rx="5" ry="4" fill="#fff8dc" opacity="0.8"/>
  <!-- Swirling embers -->
  <circle cx="8" cy="16" r="2" fill="#ff4400" opacity="0.7"/>
  <circle cx="56" cy="12" r="1.5" fill="#ff6600" opacity="0.6"/>
  <circle cx="10" cy="6" r="1" fill="#ff8800" opacity="0.5"/>
  <circle cx="54" cy="4" r="1.8" fill="#ff5500" opacity="0.5"/>
  <circle cx="4" cy="30" r="1.2" fill="#ff3300" opacity="0.4"/>
</svg>